# xmcd
#
# Track frame offsets:
#	150
#	16198
#	32229
#	45582
#	64516
#	84399
#	98249
#	118686
#	135654
#	160140
#	178184
#	198397
#	210674
#	225282
#	239478
#	251182
#	264444
#	278110
#	291327
#
# Disc length: 4038 seconds
#
# Revision: 1
# Processed by: cddbd v1.5PL3 Copyright (c) Steve Scherf et al.
# Submitted via: EasyCDDAExtractor 5.0.7
#
DISCID=0c0fc413
DTITLE=Freud Marx Engels and Jung - Sattuipa hassusti matkalla Forumiin...
DYEAR=2444
DGENRE=country
TTITLE0=Danny show
TTITLE1=Teksasiin
TTITLE2=En koskaan mene sänkyyn ruman naisen kanssa
TTITLE3=Joki
TTITLE4=Mystinen metsätyömies
TTITLE5=Nattasia katsomassa eli Pekulijenkka twist
TTITLE6=Lintumies
TTITLE7=Mustelmilla
TTITLE8=Vanha kaarti
TTITLE9=Särkynytsydämiset (viekää minut baariin)
TTITLE10=Sunnuntaiaamun kadut
TTITLE11=Jaloviinaa
TTITLE12=Vanha kaljapummi
TTITLE13=Juomalaulu
TTITLE14=Ei ei laulu
TTITLE15=Valon mä näin
TTITLE16=Metsän poika
TTITLE17=Paha Mari
TTITLE18=Iloinen poika ja iloinen tyttö
EXTD=
EXTT0=
EXTT1=
EXTT2=
EXTT3=
EXTT4=
EXTT5=
EXTT6=
EXTT7=
EXTT8=
EXTT9=
EXTT10=
EXTT11=
EXTT12=
EXTT13=
EXTT14=
EXTT15=
EXTT16=
EXTT17=
EXTT18=
PLAYORDER=
